{
  "accessors": [
    {
      "bufferView": 2,
      "componentType": 5126,
      "count": 14100,
      "max": [
        1.7872370481491089,
        1.8073649406433105,
        -0.7311090230941772
      ],
      "min": [
        -1.7872370481491089,
        -0.37427398562431335,
        -9.37667465209961
      ],
      "type": "VEC3"
    },
    {
      "bufferView": 2,
      "byteOffset": 169200,
      "componentType": 5126,
      "count": 14100,
      "max": [
        0.9998862147331238,
        0.9999998807907104,
        0.9998076558113098
      ],
      "min": [
        -0.9998863339424133,
        -0.9999996423721313,
        -0.9999983310699463
      ],
      "type": "VEC3"
    },
    {
      "bufferView": 3,
      "componentType": 5126,
      "count": 14100,
      "max": [
        0.9999996423721313,
        0.9999388456344604,
        0.9999642372131348,
        1.0
      ],
      "min": [
        -0.9999918341636658,
        -0.9999923706054688,
        -0.9983903169631958,
        -1.0
      ],
      "type": "VEC4"
    },
    {
      "bufferView": 1,
      "componentType": 5126,
      "count": 14100,
      "max": [
        0.9907780289649963,
        0.9903900027275085
      ],
      "min": [
        0.008911999873816967,
        0.01030299998819828
      ],
      "type": "VEC2"
    },
    {
      "bufferView": 0,
      "componentType": 5125,
      "count": 78528,
      "type": "SCALAR"
    },
    {
      "bufferView": 2,
      "byteOffset": 338400,
      "componentType": 5126,
      "count": 6018,
      "max": [
        0.6160489916801453,
        0.9459969997406006,
        0.19969899952411652
      ],
      "min": [
        -0.6160489916801453,
        -0.40293800830841064,
        -1.4487049579620361
      ],
      "type": "VEC3"
    },
    {
      "bufferView": 2,
      "byteOffset": 410616,
      "componentType": 5126,
      "count": 6018,
      "max": [
        0.9984193444252014,
        0.9999262094497681,
        0.9999387860298157
      ],
      "min": [
        -0.9984193444252014,
        -0.9999988675117493,
        -0.9997153282165527
      ],
      "type": "VEC3"
    },
    {
      "bufferView": 3,
      "byteOffset": 225600,
      "componentType": 5126,
      "count": 6018,
      "max": [
        0.9999967217445374,
        0.9999131560325623,
        0.9999840259552002,
        1.0
      ],
      "min": [
        -0.9999948740005493,
        -0.9997364282608032,
        -0.9988487362861633,
        -1.0
      ],
      "type": "VEC4"
    },
    {
      "bufferView": 1,
      "byteOffset": 112800,
      "componentType": 5126,
      "count": 6018,
      "max": [
        0.9841110110282898,
        0.992268979549408
      ],
      "min": [
        0.0073460000567138195,
        0.02376900054514408
      ],
      "type": "VEC2"
    },
    {
      "bufferView": 0,
      "byteOffset": 314112,
      "componentType": 5125,
      "count": 33528,
      "type": "SCALAR"
    }
  ],
  "asset": {
    "extras": {
      "author": "Liaval (https://sketchfab.com/Liaval)",
      "license": "CC-BY-4.0 (http://creativecommons.org/licenses/by/4.0/)",
      "source": "https://sketchfab.com/3d-models/viking-fashion-24e2a6ced57944f7b83f2cec65ee6420",
      "title": "Viking Fashion"
    },
    "generator": "Sketchfab-13.50.0",
    "version": "2.0"
  },
  "bufferViews": [
    {
      "buffer": 0,
      "byteLength": 448224,
      "name": "floatBufferViews",
      "target": 34963
    },
    {
      "buffer": 0,
      "byteLength": 160944,
      "byteOffset": 448224,
      "byteStride": 8,
      "name": "floatBufferViews",
      "target": 34962
    },
    {
      "buffer": 0,
      "byteLength": 482832,
      "byteOffset": 609168,
      "byteStride": 12,
      "name": "floatBufferViews",
      "target": 34962
    },
    {
      "buffer": 0,
      "byteLength": 321888,
      "byteOffset": 1092000,
      "byteStride": 16,
      "name": "floatBufferViews",
      "target": 34962
    }
  ],
  "buffers": [
    {
      "byteLength": 1413888,
      "uri": "scene.bin"
    }
  ],
  "images": [
    {
      "uri": "textures/FBLOD0Body1lambert2SG_baseColor.png"
    },
    {
      "uri": "textures/FBLOD0Body1lambert2SG_metallicRoughness.png"
    },
    {
      "uri": "textures/FBLOD0Body1lambert2SG_normal.png"
    },
    {
      "uri": "textures/FBLOD0Head1lambert1SG_baseColor.png"
    },
    {
      "uri": "textures/FBLOD0Head1lambert1SG_metallicRoughness.png"
    },
    {
      "uri": "textures/FBLOD0Head1lambert1SG_normal.png"
    }
  ],
  "materials": [
    {
      "doubleSided": true,
      "name": "FBLOD0Body1lambert2SG",
      "normalTexture": {
        "index": 2
      },
      "occlusionTexture": {
        "index": 1
      },
      "pbrMetallicRoughness": {
        "baseColorTexture": {
          "index": 0
        },
        "metallicRoughnessTexture": {
          "index": 1
        }
      }
    },
    {
      "doubleSided": true,
      "name": "FBLOD0Head1lambert1SG",
      "normalTexture": {
        "index": 5
      },
      "occlusionTexture": {
        "index": 4
      },
      "pbrMetallicRoughness": {
        "baseColorTexture": {
          "index": 3
        },
        "metallicRoughnessTexture": {
          "index": 4
        }
      }
    }
  ],
  "meshes": [
    {
      "name": "Object_0",
      "primitives": [
        {
          "attributes": {
            "NORMAL": 1,
            "POSITION": 0,
            "TANGENT": 2,
            "TEXCOORD_0": 3
          },
          "indices": 4,
          "material": 0,
          "mode": 4
        }
      ]
    },
    {
      "name": "Object_1",
      "primitives": [
        {
          "attributes": {
            "NORMAL": 6,
            "POSITION": 5,
            "TANGENT": 7,
            "TEXCOORD_0": 8
          },
          "indices": 9,
          "material": 1,
          "mode": 4
        }
      ]
    }
  ],
  "nodes": [
    {
      "children": [
        1
      ],
      "matrix": [
        1.0,
        0.0,
        0.0,
        0.0,
        0.0,
        2.220446049250313e-16,
        -1.0,
        0.0,
        0.0,
        1.0,
        2.220446049250313e-16,
        0.0,
        0.0,
        0.0,
        0.0,
        1.0
      ],
      "name": "Sketchfab_model"
    },
    {
      "children": [
        2,
        3
      ],
      "name": "LOD0Combined.obj.cleaner.materialmerger.gles"
    },
    {
      "mesh": 0,
      "name": "Object_2"
    },
    {
      "mesh": 1,
      "name": "Object_3"
    }
  ],
  "samplers": [
    {
      "magFilter": 9729,
      "minFilter": 9987,
      "wrapS": 10497,
      "wrapT": 10497
    }
  ],
  "scene": 0,
  "scenes": [
    {
      "name": "Sketchfab_Scene",
      "nodes": [
        0
      ]
    }
  ],
  "textures": [
    {
      "sampler": 0,
      "source": 0
    },
    {
      "sampler": 0,
      "source": 1
    },
    {
      "sampler": 0,
      "source": 2
    },
    {
      "sampler": 0,
      "source": 3
    },
    {
      "sampler": 0,
      "source": 4
    },
    {
      "sampler": 0,
      "source": 5
    }
  ]
}
